# xmcd CD database file
#
# Track frame offsets:
#	150
#	11885
#	26728
#	40958
#	58149
#	73124
#	88612
#	100330
#	113188
#	127482
#	143409
#
# Disc length: 2072 seconds
#
# Revision: 0
# Processed by: cddbd v1.5.2PL0 Copyright (c) Steve Scherf et al.
# Submitted via: CDex 1.70beta2
#
DISCID=a208160b
DTITLE=Barry Martin - Memories...
DYEAR=2008
DGENRE=Country
TTITLE0=Bed of Roses
TTITLE1=Chattanougie Shoe Shine Boy
TTITLE2=Don't She Look Good
TTITLE3=When The Renfrew County Fiddlers Come To Town
TTITLE4=Fifteen Years Ago
TTITLE5=Living On Love
TTITLE6=Wreck of the Nintey-Seven
TTITLE7=She Thinks I Still Care
TTITLE8=I"m So Afraid of Losing You
TTITLE9=Days of Wine and Roses
TTITLE10=Wreck of Number Nine
EXTD=YEAR: 2008
EXTT0=
EXTT1=
EXTT2=
EXTT3=
EXTT4=
EXTT5=
EXTT6=
EXTT7=
EXTT8=
EXTT9=
EXTT10=
PLAYORDER=
